<svg xmlns="http://www.w3.org/2000/svg" xmlns:xlink="http://www.w3.org/1999/xlink" viewBox="0 0 362 134.79"><defs><style>.a{fill:url(#a);}.b{fill:#040404;}.c{fill:url(#b);}.d{fill:url(#c);}.e{fill:url(#d);}.f{fill:url(#e);}.g{fill:url(#f);}.h{fill:url(#g);}.i{fill:url(#h);}.j{fill:url(#i);}.k{fill:url(#j);}.l{fill:url(#k);}.m{fill:url(#l);}.n{fill:url(#m);}</style><linearGradient id="a" x1="287.36" y1="133.64" x2="287.36" y2="1.15" gradientUnits="userSpaceOnUse"><stop offset="0" stop-color="#ccd6df"/><stop offset="1" stop-color="#2a343b"/></linearGradient><linearGradient id="b" x1="20.44" y1="89.54" x2="20.44" y2="43.61" gradientUnits="userSpaceOnUse"><stop offset="0" stop-color="#afbbc3"/><stop offset="1" stop-color="#323d46"/></linearGradient><linearGradient id="c" x1="58.71" y1="89.54" x2="58.71" y2="43.61" xlink:href="#b"/><linearGradient id="d" x1="95.55" y1="88.22" x2="95.55" y2="44.93" xlink:href="#b"/><linearGradient id="e" x1="132.08" y1="88.89" x2="132.08" y2="59.02" xlink:href="#b"/><linearGradient id="f" x1="163.82" y1="88.89" x2="163.82" y2="59.4" xlink:href="#b"/><linearGradient id="g" x1="196.82" y1="88.22" x2="196.82" y2="59.4" xlink:href="#b"/><linearGradient id="h" x1="226.19" y1="88.89" x2="226.19" y2="59.02" xlink:href="#b"/><linearGradient id="i" x1="247.55" y1="88.22" x2="247.55" y2="45.78" xlink:href="#b"/><linearGradient id="j" x1="272.47" y1="88.22" x2="272.47" y2="59.4" xlink:href="#b"/><linearGradient id="k" x1="301.74" y1="88.89" x2="301.74" y2="59.02" xlink:href="#b"/><linearGradient id="l" x1="326.58" y1="88.89" x2="326.58" y2="59.02" xlink:href="#b"/><linearGradient id="m" x1="349.9" y1="88.89" x2="349.9" y2="59.02" xlink:href="#b"/></defs><path class="a" d="M341.49,133.63c-17.92-.66-36.14-1-54.12-1-17.7,0-35.64.32-53.34,1l-.84,0a1.94,1.94,0,0,1-2-1.91v-4.39a1.91,1.91,0,0,1,1.91-1.9h4.27c9,0,11.72-1,12.53-1.52,1.31-.91,2-3,2-6.36V17.14c0-3.24-.68-5.35-2-6.27-.83-.57-3.56-1.52-12.49-1.52H233.1a1.91,1.91,0,0,1-1.91-1.9V3.06a1.91,1.91,0,0,1,1.91-1.91h.13c17.94.66,36.16,1,54.14,1s36.2-.33,54.16-1h.11a1.91,1.91,0,0,1,1.9,1.91V7.45a1.91,1.91,0,0,1-1.91,1.9h-4.18c-9,0-11.71,1-12.52,1.52-1.31.91-2,3-2,6.27V117.56c0,3.25.67,5.38,2,6.33.81.58,3.51,1.55,12.51,1.55h4.18a1.91,1.91,0,0,1,1.91,1.9v4.39a1.91,1.91,0,0,1-1.91,1.91Zm-41-9.13ZM274.42,10.31a4.5,4.5,0,0,0-1.32.56c-1.31.91-2,3-2,6.27V117.56c0,3.25.66,5.38,2,6.33a5,5,0,0,0,1.4.59,4.42,4.42,0,0,0,1.3-.56c1.31-.91,2-3,2-6.36V17.14c0-3.24-.68-5.35-2-6.27A5,5,0,0,0,274.42,10.31Zm25.92,0a4.61,4.61,0,0,0-1.33.56c-1.31.91-2,3-2,6.27V117.56c0,3.25.67,5.38,2,6.33a4.91,4.91,0,0,0,1.39.59,4.42,4.42,0,0,0,1.3-.56c1.31-.91,2-3,2-6.36V17.14c0-3.24-.68-5.35-2-6.27A5,5,0,0,0,300.34,10.31Z"/><path class="b" d="M233.1,2.3h.06q27.09,1,54.21,1t54.2-1h.07a.76.76,0,0,1,.75.76V7.45a.76.76,0,0,1-.76.75h-4.18q-10.71,0-13.18,1.72t-2.47,7.22V117.56q0,5.49,2.47,7.26t13.18,1.77h4.18a.76.76,0,0,1,.76.75v4.39a.76.76,0,0,1-.76.76h-.06q-27.09-1-54.2-1-26.7,0-53.38,1l-.83,0h-.06a.76.76,0,0,1-.76-.76v-4.39a.76.76,0,0,1,.76-.75h4.27q10.71,0,13.18-1.72t2.47-7.31V17.14q0-5.49-2.51-7.22T237.37,8.2H233.1a.76.76,0,0,1-.76-.75V3.06a.76.76,0,0,1,.76-.76m67.32,123.34a.83.83,0,0,0,.22,0,6.12,6.12,0,0,0,1.74-.74c1.64-1.15,2.47-3.59,2.47-7.31V17.14q0-5.49-2.52-7.22a6.23,6.23,0,0,0-1.77-.74.83.83,0,0,0-.22,0,.78.78,0,0,0-.22,0,6,6,0,0,0-1.76.74q-2.48,1.72-2.47,7.22V117.56q0,5.49,2.47,7.26a6.05,6.05,0,0,0,1.84.79.78.78,0,0,0,.22,0m-25.91,0a.83.83,0,0,0,.22,0,6.12,6.12,0,0,0,1.74-.74c1.64-1.15,2.47-3.59,2.47-7.31V17.14q0-5.49-2.52-7.22a6.31,6.31,0,0,0-1.78-.74.78.78,0,0,0-.22,0,.83.83,0,0,0-.22,0,6.15,6.15,0,0,0-1.76.74Q270,11.65,270,17.14V117.56q0,5.49,2.46,7.26a6.43,6.43,0,0,0,1.84.79.85.85,0,0,0,.23,0M341.64,0h-.17c-18,.66-36.15,1-54.1,1s-36.16-.33-54.1-1h-.17A3.06,3.06,0,0,0,230,3.06V7.45a3.06,3.06,0,0,0,3.06,3.05h4.27c9.19,0,11.39,1,11.84,1.32,1,.67,1.51,2.56,1.51,5.32V117.56c0,2.83-.52,4.75-1.48,5.42-.44.31-2.6,1.31-11.87,1.31H233.1a3.06,3.06,0,0,0-3.06,3v4.39a3.07,3.07,0,0,0,3.06,3.06h.17l.81,0c17.67-.65,35.6-1,53.29-1,17.95,0,36.15.33,54.09,1h.17a3.07,3.07,0,0,0,3.06-3.06v-4.39a3.06,3.06,0,0,0-3.06-3h-4.18c-9.26,0-11.4-1-11.84-1.34-1-.69-1.51-2.61-1.51-5.39V17.14c0-2.77.53-4.66,1.49-5.33.44-.31,2.59-1.31,11.86-1.31h4.18a3.06,3.06,0,0,0,3.06-3V3.06A3.06,3.06,0,0,0,341.64,0ZM300.42,123.27a2.81,2.81,0,0,1-.72-.32c-1-.69-1.51-2.61-1.51-5.39V17.14c0-2.77.52-4.66,1.48-5.33a2.74,2.74,0,0,1,.67-.29,3.12,3.12,0,0,1,.7.3c1,.67,1.51,2.56,1.51,5.32V117.56c0,2.83-.53,4.75-1.49,5.42a2.39,2.39,0,0,1-.64.29Zm-25.92,0a3,3,0,0,1-.72-.32c-1-.69-1.5-2.61-1.5-5.39V17.14c0-2.77.52-4.66,1.48-5.33a2.74,2.74,0,0,1,.67-.29,2.92,2.92,0,0,1,.69.3c1,.67,1.52,2.56,1.52,5.32V117.56c0,2.83-.53,4.75-1.49,5.42a2.58,2.58,0,0,1-.65.29Z"/><path class="c" d="M23.17,89.54A21,21,0,0,1,7.65,82.86a22.61,22.61,0,0,1-6.5-16.31A22.52,22.52,0,0,1,7.66,50.33a21,21,0,0,1,15.51-6.72,14.15,14.15,0,0,1,5.42,1.06,16.8,16.8,0,0,1,3.69,1.95c.51.39,1.07.88,1.71,1.48l2-3.21a2.19,2.19,0,0,1,1.91-1.28,1.62,1.62,0,0,1,1.68,1.07,4.94,4.94,0,0,1,.15,1.52V60.44a3.69,3.69,0,0,1-.25,1.73,2,2,0,0,1-1.91.85,1.56,1.56,0,0,1-1.51-.8A3.68,3.68,0,0,1,35.77,61a17.51,17.51,0,0,0-4.2-9.69,10.09,10.09,0,0,0-7.73-3.5,14.24,14.24,0,0,0-2.81.3,13.67,13.67,0,0,0-3.58,1.44,13.45,13.45,0,0,0-3.75,3A16.47,16.47,0,0,0,10.86,58,27.28,27.28,0,0,0,9.63,66.6a27.31,27.31,0,0,0,1.23,8.54,15.83,15.83,0,0,0,2.84,5.47,13.41,13.41,0,0,0,3.75,3,14.1,14.1,0,0,0,3.62,1.46,13.82,13.82,0,0,0,2.83.31A11.75,11.75,0,0,0,32.21,82a12,12,0,0,0,3.71-9c0-.22,0-.33,0-.4a1.82,1.82,0,0,1,.15-.72,1.51,1.51,0,0,1,.86-.84,2.26,2.26,0,0,1,.81-.13,1.94,1.94,0,0,1,2,2.17,16.56,16.56,0,0,1-4.6,11.27A15.4,15.4,0,0,1,23.17,89.54Z"/><path class="b" d="M37.9,44.76c.33,0,.53.1.59.28a4.67,4.67,0,0,1,.09,1.16V60.44a3.51,3.51,0,0,1-.12,1.2c-.08.15-.38.23-.89.23-.26,0-.43-.06-.49-.17a3.12,3.12,0,0,1-.17-.85,18.43,18.43,0,0,0-4.5-10.34,11.29,11.29,0,0,0-8.57-3.87,15.63,15.63,0,0,0-3,.32,14.66,14.66,0,0,0-3.9,1.55,14.31,14.31,0,0,0-4.07,3.27,17.09,17.09,0,0,0-3.07,5.88A28.18,28.18,0,0,0,8.48,66.6a28,28,0,0,0,1.29,8.9,16.75,16.75,0,0,0,3.07,5.87,14.55,14.55,0,0,0,4.07,3.24,15,15,0,0,0,3.93,1.56,14.7,14.7,0,0,0,3.06.34A13,13,0,0,0,33,82.86,13.19,13.19,0,0,0,37.07,73c0-.19,0-.33,0-.42a.74.74,0,0,1,.06-.28.35.35,0,0,1,.21-.2,1.09,1.09,0,0,1,.4-.06c.55,0,.82.34.82,1A15.38,15.38,0,0,1,34.27,83.6a14.25,14.25,0,0,1-11.1,4.79,19.79,19.79,0,0,1-14.7-6.34A21.38,21.38,0,0,1,2.3,66.55,21.33,21.33,0,0,1,8.48,51.13a19.82,19.82,0,0,1,14.69-6.37,13,13,0,0,1,5,1,15.59,15.59,0,0,1,3.43,1.8,29.58,29.58,0,0,1,2.64,2.39L37,45.49c.29-.48.6-.73.94-.73m0-2.3A3.33,3.33,0,0,0,35,44.3l-1.26,2c-.27-.23-.52-.44-.76-.62A17.61,17.61,0,0,0,29,43.6a15.45,15.45,0,0,0-5.86-1.14A22.1,22.1,0,0,0,6.83,49.53,23.65,23.65,0,0,0,0,66.55,23.74,23.74,0,0,0,6.82,83.66a22.13,22.13,0,0,0,16.35,7A16.5,16.5,0,0,0,36,85.13a17.67,17.67,0,0,0,4.9-12,3.09,3.09,0,0,0-3.12-3.32,3.4,3.4,0,0,0-1.22.21A2.68,2.68,0,0,0,35,71.45a3.08,3.08,0,0,0-.23,1.16s0,.14,0,.26V73a10.85,10.85,0,0,1-3.35,8.19,10.64,10.64,0,0,1-7.52,3,13.09,13.09,0,0,1-2.6-.29A13.47,13.47,0,0,1,18,82.58a12.3,12.3,0,0,1-3.43-2.73A15,15,0,0,1,12,74.78a26.2,26.2,0,0,1-1.17-8.18A26.21,26.21,0,0,1,12,58.39a15.11,15.11,0,0,1,2.62-5.1A12,12,0,0,1,18,50.54a13,13,0,0,1,3.27-1.33,13.4,13.4,0,0,1,2.58-.27,9,9,0,0,1,6.89,3.13,16.4,16.4,0,0,1,3.9,9.1,4.67,4.67,0,0,0,.4,1.58,2.72,2.72,0,0,0,2.54,1.42A3,3,0,0,0,40.5,62.7a4.64,4.64,0,0,0,.38-2.26V46.2a6.27,6.27,0,0,0-.2-1.88,2.79,2.79,0,0,0-2.78-1.86Z"/><path class="d" d="M60.13,89.54a17.56,17.56,0,0,1-7-1.34A15.15,15.15,0,0,1,49.37,86c-.51.8-1,1.46-1.34,2l-.13.22A2.34,2.34,0,0,1,46,89.54a1.6,1.6,0,0,1-1.67-1.11A5.19,5.19,0,0,1,44.17,87v-12q0-.78,0-1a1.8,1.8,0,0,1,.54-1.08,1.79,1.79,0,0,1,1.34-.52A1.76,1.76,0,0,1,48,74c.12,3.74,1.22,6.49,3.38,8.47s5,2.94,8.72,2.94a6.23,6.23,0,0,0,5-2.19,7.67,7.67,0,0,0,2-5.23,7.18,7.18,0,0,0-1.64-4.79,6.78,6.78,0,0,0-1.54-1.46A6.55,6.55,0,0,0,62.48,71c-.37-.12-.93-.28-1.68-.47-7.53-1.81-7.9-2-8.09-2.06a12.31,12.31,0,0,1-6.18-4.62,12.57,12.57,0,0,1-2.36-7.42,12.77,12.77,0,0,1,12.9-12.78,14.17,14.17,0,0,1,5,.85,11.75,11.75,0,0,1,3.26,1.67c.35.29.75.63,1.2,1L67.85,45a2.29,2.29,0,0,1,1.89-1.34,1.61,1.61,0,0,1,1.66,1,4.46,4.46,0,0,1,.18,1.56V58.27a8.08,8.08,0,0,1,0,1,1.68,1.68,0,0,1-.67,1.16,2,2,0,0,1-1.24.37,1.88,1.88,0,0,1-1.88-1.61c-1-7.85-4.5-11.63-10.57-11.63a6.61,6.61,0,0,0-6.76,6.67,6.57,6.57,0,0,0,1.38,4.08,6.33,6.33,0,0,0,3.71,2.39l7.68,1.84a12.51,12.51,0,0,1,7.19,4.74,14.28,14.28,0,0,1-.79,18.13A12.25,12.25,0,0,1,60.13,89.54Z"/><path class="b" d="M69.74,44.76c.32,0,.52.1.59.28a4.09,4.09,0,0,1,.1,1.16V58.27a8.83,8.83,0,0,1,0,.91.56.56,0,0,1-.22.38.9.9,0,0,1-.55.14c-.4,0-.65-.23-.75-.7Q67.2,46.46,57.18,46.46a7.74,7.74,0,0,0-7.91,7.82,7.73,7.73,0,0,0,1.62,4.77,7.48,7.48,0,0,0,4.35,2.82l7.68,1.84A11.41,11.41,0,0,1,69.47,68a12.53,12.53,0,0,1,2.63,7.85,12.66,12.66,0,0,1-3.36,8.81,11.13,11.13,0,0,1-8.61,3.7,16.52,16.52,0,0,1-6.57-1.24,12.4,12.4,0,0,1-4.41-3c-.83,1.34-1.51,2.38-2,3.12l-.19.3c-.32.53-.63.8-.93.8s-.51-.1-.57-.3A4.13,4.13,0,0,1,45.32,87v-12c0-.45,0-.75,0-.91a.68.68,0,0,1,.21-.41.71.71,0,0,1,.53-.18.64.64,0,0,1,.73.62Q47,80,50.55,83.27t9.5,3.24a7.35,7.35,0,0,0,5.86-2.59,8.87,8.87,0,0,0,2.24-6,8.4,8.4,0,0,0-1.9-5.53,7.9,7.9,0,0,0-1.8-1.68,7.64,7.64,0,0,0-1.6-.86c-.41-.14-1-.3-1.77-.5q-7.44-1.78-7.91-2a11.62,11.62,0,0,1-4.45-19.21,11.34,11.34,0,0,1,8.35-3.41,12.86,12.86,0,0,1,4.55.78A10.94,10.94,0,0,1,64.55,47c.57.47,1.29,1.12,2.18,2l2.1-3.43c.31-.52.62-.79.91-.79m0-2.3a3.35,3.35,0,0,0-2.89,1.91l-.63,1L66,45.24a13.13,13.13,0,0,0-3.59-1.86,15.3,15.3,0,0,0-5.35-.92,14,14,0,0,0-11.48,22,13.56,13.56,0,0,0,6.77,5c.35.14,1.39.45,8.19,2.08.69.17,1.22.32,1.56.44a5.19,5.19,0,0,1,1.07.6,5.33,5.33,0,0,1,1.25,1.18l0,.06a6.06,6.06,0,0,1,1.37,4,6.59,6.59,0,0,1-1.68,4.48,5.08,5.08,0,0,1-4.12,1.79c-3.43,0-6-.86-7.94-2.63s-2.9-4.25-3-7.59c0,0,0-.1,0-.15A3.07,3.07,0,0,0,43.93,72a3,3,0,0,0-.87,1.76,11.26,11.26,0,0,0,0,1.19V87a6,6,0,0,0,.19,1.82A2.75,2.75,0,0,0,46,90.69a3.35,3.35,0,0,0,2.9-1.91l.13-.21c.2-.28.42-.59.65-.93a18.28,18.28,0,0,0,3,1.62,18.69,18.69,0,0,0,7.48,1.43,13.36,13.36,0,0,0,10.31-4.46,15.41,15.41,0,0,0,.85-19.6,13.65,13.65,0,0,0-7.85-5.16l-7.67-1.84a5.26,5.26,0,0,1-3.05-2,5.49,5.49,0,0,1-1.15-3.39,5.45,5.45,0,0,1,5.61-5.52c3.44,0,8.16,1.09,9.42,10.54l0,.18a3,3,0,0,0,3,2.52,3.07,3.07,0,0,0,1.93-.61,2.8,2.8,0,0,0,1.12-1.93,8.6,8.6,0,0,0,0-1.19V46.2a5.43,5.43,0,0,0-.25-2,2.8,2.8,0,0,0-2.74-1.78Z"/><path class="e" d="M77.11,88.22A1.15,1.15,0,0,1,76,87.07V85.19A1.15,1.15,0,0,1,77.11,84h1.43c2.71,0,3.28-.29,3.34-.33h0s.26-.23.26-1.36V50.77c0-1.12-.28-1.33-.28-1.34s-.62-.32-3.32-.32H77.11A1.15,1.15,0,0,1,76,48V46.08a1.15,1.15,0,0,1,1.15-1.15h22a16.1,16.1,0,0,1,10.3,3.31c2.83,2.27,4.27,4.95,4.27,8A9.11,9.11,0,0,1,110.5,63a14.27,14.27,0,0,1-3.72,2.47,14.28,14.28,0,0,1,4.7,2.85,10.21,10.21,0,0,1,3.67,7.74A11.08,11.08,0,0,1,111,84.63a15.22,15.22,0,0,1-10.34,3.59Zm12.42-4.31A7.18,7.18,0,0,0,91.2,84h7.5a7.43,7.43,0,0,0,5.94-2.43,8.18,8.18,0,0,0,2.2-5.6,9.83,9.83,0,0,0-2-5.9,6.13,6.13,0,0,0-5.33-2.55H89.42V82.79A3.84,3.84,0,0,0,89.53,83.91ZM97,64c2.76,0,4.81-.79,6.24-2.4a7.83,7.83,0,0,0,2.19-5.33,8,8,0,0,0-1.75-4.91,5.79,5.79,0,0,0-5-2.2H91.2a7.37,7.37,0,0,0-1.68.13,4.54,4.54,0,0,0-.1,1.12V64Z"/><path class="b" d="M99.15,46.08a14.86,14.86,0,0,1,9.58,3.06q3.84,3.06,3.84,7.08a8,8,0,0,1-2.85,6,14.48,14.48,0,0,1-7.29,3.48,14.15,14.15,0,0,1,8.28,3.53A9.1,9.1,0,0,1,114,76.07a10,10,0,0,1-3.78,7.7,14,14,0,0,1-9.58,3.3H77.11V85.19h1.43c2.17,0,3.5-.18,4-.54a2.73,2.73,0,0,0,.75-2.3V50.77a2.69,2.69,0,0,0-.76-2.27q-.77-.54-4-.54H77.11V46.08h22m-10.88,19H97c3.08,0,5.45-.92,7.1-2.78a9,9,0,0,0,2.48-6.09,9.27,9.27,0,0,0-2-5.6A6.93,6.93,0,0,0,98.65,48H91.2a4.37,4.37,0,0,0-2.49.41,2.94,2.94,0,0,0-.44,2V65.09m2.93,20.1h7.5a8.6,8.6,0,0,0,6.8-2.82A9.36,9.36,0,0,0,108,76a11,11,0,0,0-2.18-6.57,7.24,7.24,0,0,0-6.26-3H88.27V82.79a3,3,0,0,0,.44,2,4.34,4.34,0,0,0,2.49.42m8-41.41h-22a2.29,2.29,0,0,0-2.3,2.3V48a2.29,2.29,0,0,0,2.3,2.3h1.43a16.8,16.8,0,0,1,2.43.13,3.63,3.63,0,0,1,0,.38V82.35c0,.17,0,.31,0,.41a16.91,16.91,0,0,1-2.43.13H77.11a2.29,2.29,0,0,0-2.3,2.3v1.88a2.29,2.29,0,0,0,2.3,2.3h23.53a16.29,16.29,0,0,0,11.09-3.87,12.18,12.18,0,0,0,4.57-9.43,11.31,11.31,0,0,0-4-8.59,15,15,0,0,0-2.92-2.1,16,16,0,0,0,2-1.53,10.18,10.18,0,0,0,3.59-7.63c0-3.4-1.58-6.38-4.7-8.87a17.15,17.15,0,0,0-11-3.57Zm-8.58,6.49h8.08c2.5,0,3.53,1,4.08,1.73a7,7,0,0,1,1.53,4.23,6.67,6.67,0,0,1-1.9,4.56c-1.2,1.36-3,2-5.38,2H90.57V50.27Zm0,18.44h9a5,5,0,0,1,4.4,2.08A8.71,8.71,0,0,1,105.69,76a7.08,7.08,0,0,1-1.91,4.84,6.39,6.39,0,0,1-5.08,2H90.57V68.71Z"/><path class="f" d="M132.05,88.89a14.6,14.6,0,0,1-14.43-14.67,15.17,15.17,0,0,1,4.19-10.66,13.87,13.87,0,0,1,20.5,0,15.13,15.13,0,0,1,4.22,10.71,14.17,14.17,0,0,1-4.28,10.39A14,14,0,0,1,132.05,88.89Zm0-26.25a6.93,6.93,0,0,0-3.28.88,6.32,6.32,0,0,0-2.58,2.57c-.85,1.56-1.29,4.14-1.29,7.65,0,3.67.47,6.33,1.37,7.91a6.35,6.35,0,0,0,5.84,3.45,6.23,6.23,0,0,0,3.46-1,7,7,0,0,0,2.49-2.79c.79-1.58,1.19-4.13,1.19-7.55,0-3.62-.47-6.23-1.41-7.74A6.34,6.34,0,0,0,132.05,62.64Z"/><path class="b" d="M132.11,60.17a12.41,12.41,0,0,1,9.36,4.15,13.93,13.93,0,0,1,3.91,9.92,13.42,13.42,0,0,1-13.33,13.5,12.87,12.87,0,0,1-9.31-3.9,13,13,0,0,1-4-9.62,14,14,0,0,1,3.89-9.88,12.4,12.4,0,0,1,9.45-4.17m0,26.08A7.36,7.36,0,0,0,136.2,85a8.11,8.11,0,0,0,2.88-3.23q1.32-2.64,1.32-8.07,0-5.79-1.58-8.34a7.46,7.46,0,0,0-6.77-3.91,8.1,8.1,0,0,0-3.83,1,7.62,7.62,0,0,0-3,3q-1.44,2.65-1.44,8.23,0,5.83,1.53,8.48a7.46,7.46,0,0,0,6.83,4m0-28.38A14.72,14.72,0,0,0,121,62.77a16.34,16.34,0,0,0-4.5,11.45,15.61,15.61,0,1,0,31.21,0,16.2,16.2,0,0,0-4.54-11.5,14.69,14.69,0,0,0-11-4.87Zm-4.91,8.76a5.39,5.39,0,0,1,2.11-2.1,5.7,5.7,0,0,1,2.74-.74,5.21,5.21,0,0,1,4.8,2.79c.58.94,1.25,2.92,1.25,7.16,0,4-.59,6.06-1.08,7.05A5.8,5.8,0,0,1,135,83.11a5.11,5.11,0,0,1-2.84.84,5.21,5.21,0,0,1-4.84-2.88c-.55-1-1.22-3-1.22-7.33,0-4.1.62-6.13,1.15-7.11Z"/><path class="g" d="M170.29,88.89a1.17,1.17,0,0,1-.78-.3,1.15,1.15,0,0,1-.37-.85V86.12a8.73,8.73,0,0,1-6.58,2.77,13.81,13.81,0,0,1-4.85-.75,9.23,9.23,0,0,1-3.09-1.73,6.57,6.57,0,0,1-1.72-3,12.7,12.7,0,0,1-.58-2.87c0-.69-.06-1.67-.06-3v-9a13.65,13.65,0,0,0-.33-4,9,9,0,0,0-3.21-.33,1.14,1.14,0,0,1-1.15-1.15V61.2a1.15,1.15,0,0,1,1.06-1.15l8.82-.64h.09a1.13,1.13,0,0,1,.78.31,1.17,1.17,0,0,1,.37.84v20a16.42,16.42,0,0,0,.1,2.11,4.73,4.73,0,0,0,.5,1.45,1.72,1.72,0,0,0,1,.85,7.25,7.25,0,0,0,2.54.36,5.16,5.16,0,0,0,4.35-2.21A9.49,9.49,0,0,0,169,77.12V66.42c0-1.54-.31-1.85-.31-1.85s-.6-.35-3.23-.35a1.15,1.15,0,0,1-1.15-1.15V61.2a1.16,1.16,0,0,1,1.07-1.15l8.82-.64h.08a1.17,1.17,0,0,1,.79.31,1.16,1.16,0,0,1,.36.84V81.83c0,1.55.31,1.87.32,1.87s.59.34,3.22.34a1.15,1.15,0,0,1,1.15,1.15v1.88A1.14,1.14,0,0,1,179,88.21Z"/><path class="b" d="M174.24,60.55V81.83q0,2.22.78,2.79c.52.38,1.82.57,3.91.57v1.88l-8.64.67V82.32q-2.52,5.4-7.74,5.42a12.73,12.73,0,0,1-4.44-.67,8.23,8.23,0,0,1-2.71-1.51A5.26,5.26,0,0,1,154,83.11a11.68,11.68,0,0,1-.55-2.6c0-.67-.05-1.65-.05-2.93v-9c0-2.71-.2-4.31-.59-4.79s-1.76-.72-4.1-.72V61.2l8.82-.65v20a19,19,0,0,0,.11,2.27,5.86,5.86,0,0,0,.61,1.81,2.88,2.88,0,0,0,1.61,1.4,8.18,8.18,0,0,0,3,.44,6.29,6.29,0,0,0,5.27-2.67,10.71,10.71,0,0,0,2-6.63V66.42c0-1.49-.26-2.42-.79-2.79s-1.83-.56-3.9-.56V61.2l8.82-.65m-16.7-2.3h-.17l-8.82.64a2.3,2.3,0,0,0-2.13,2.3v1.87a2.3,2.3,0,0,0,2.3,2.3,15.59,15.59,0,0,1,2.24.13,23.38,23.38,0,0,1,.15,3.08v9c0,1.34,0,2.34.06,3.06a14.47,14.47,0,0,0,.63,3.13,7.55,7.55,0,0,0,2,3.48,10.5,10.5,0,0,0,3.46,2,15,15,0,0,0,5.25.82,10.24,10.24,0,0,0,5.55-1.58,2.28,2.28,0,0,0,.62,1,2.34,2.34,0,0,0,1.57.61h.18l8.64-.67a2.29,2.29,0,0,0,2.12-2.29V85.19a2.3,2.3,0,0,0-2.3-2.3,15.59,15.59,0,0,1-2.33-.13,6.26,6.26,0,0,1-.06-.93V60.55a2.27,2.27,0,0,0-.73-1.68,2.3,2.3,0,0,0-1.57-.62h-.17l-8.82.64a2.3,2.3,0,0,0-2.13,2.3v1.87a2.3,2.3,0,0,0,2.3,2.3,15.37,15.37,0,0,1,2.34.14,6.38,6.38,0,0,1,.05.91v10.7a8.42,8.42,0,0,1-1.55,5.25,4,4,0,0,1-3.43,1.75,6,6,0,0,1-2.12-.28c-.31-.12-.37-.23-.4-.29a3.9,3.9,0,0,1-.38-1.1,15.79,15.79,0,0,1-.09-2v-20a2.32,2.32,0,0,0-2.3-2.3Z"/><path class="h" d="M198.41,88.22a1.16,1.16,0,0,1-1.15-1.15V85.19A1.16,1.16,0,0,1,198.41,84a11.22,11.22,0,0,0,3.4-.26,4.77,4.77,0,0,0,.14-1.31v-14a9.45,9.45,0,0,0-.81-4.31c-.26-.5-.81-1.18-2.5-1.18a6.46,6.46,0,0,0-4.78,2.25,8.5,8.5,0,0,0-2.18,6.2v11a2.66,2.66,0,0,0,.2,1.36h0a15.26,15.26,0,0,0,3.33.21,1.16,1.16,0,0,1,1.15,1.15v1.88a1.16,1.16,0,0,1-1.15,1.15h0c-4.07-.12-6.32-.18-6.7-.18-.2,0-1.54,0-6.75.18h0a1.14,1.14,0,0,1-.8-.33,1.1,1.1,0,0,1-.35-.82V85.19A1.15,1.15,0,0,1,181.71,84a12.22,12.22,0,0,0,3.4-.25,5.71,5.71,0,0,0,.14-1.32V66.41c0-1.53-.31-1.85-.31-1.85s-.6-.34-3.23-.34a1.14,1.14,0,0,1-1.15-1.15V61.2a1.15,1.15,0,0,1,1.06-1.15l8.44-.64h.09a1.16,1.16,0,0,1,1.15,1.15v2.29a9.82,9.82,0,0,1,7.75-3.44c3.36,0,5.79.9,7.2,2.66a7.34,7.34,0,0,1,1.84,3.69,43.11,43.11,0,0,1,.29,6.19V83.38c0,.38.13.41.2.43a14,14,0,0,0,3.34.23,1.15,1.15,0,0,1,1.15,1.15v1.88a1.1,1.1,0,0,1-.35.82,1.14,1.14,0,0,1-.8.33h0c-4-.12-6.31-.18-6.71-.18-.2,0-1.54,0-6.73.18Z"/><path class="b" d="M199.05,60.55c3,0,5.11.75,6.31,2.23a6.36,6.36,0,0,1,1.6,3.16,44.07,44.07,0,0,1,.27,6V83.38a1.46,1.46,0,0,0,1,1.53,15.45,15.45,0,0,0,3.66.28v1.88q-6.12-.18-6.74-.18l-6.77.18V85.19a11.49,11.49,0,0,0,4-.39c.49-.27.74-1,.74-2.33v-14a10.49,10.49,0,0,0-.94-4.84,3.6,3.6,0,0,0-3.52-1.8A7.59,7.59,0,0,0,193,64.48a9.64,9.64,0,0,0-2.5,7v11c0,1.29.25,2.06.75,2.33a11.46,11.46,0,0,0,3.94.39v1.88c-4.09-.12-6.34-.18-6.73-.18l-6.78.18V85.19a11.41,11.41,0,0,0,3.95-.39c.49-.27.74-1,.74-2.33V66.41c0-1.48-.26-2.41-.78-2.78s-1.83-.56-3.91-.56V61.2l8.44-.65v6.3q2.82-6.3,8.9-6.3m-8.9-2.3H190l-8.45.65a2.3,2.3,0,0,0-2.12,2.29v1.87a2.3,2.3,0,0,0,2.3,2.3,15.09,15.09,0,0,1,2.33.14,5.79,5.79,0,0,1,.06.9V82.47c0,.13,0,.24,0,.33a23,23,0,0,1-2.38.09,2.3,2.3,0,0,0-2.3,2.3v1.88a2.3,2.3,0,0,0,2.3,2.3h.06c5.47-.16,6.56-.18,6.72-.18s1.62,0,6.66.18h.07a2.3,2.3,0,0,0,1.6-.65,2.27,2.27,0,0,0,1.59.65h.07c5.45-.16,6.54-.18,6.7-.18s1.64,0,6.68.18h.06a2.29,2.29,0,0,0,2.3-2.3V85.19a2.3,2.3,0,0,0-2.3-2.3,23.51,23.51,0,0,1-2.39-.09V71.94a43.91,43.91,0,0,0-.31-6.38,8.52,8.52,0,0,0-2.11-4.27c-1.65-2-4.36-3-8.06-3a11.29,11.29,0,0,0-6.62,2,2.26,2.26,0,0,0-.71-1.4,2.3,2.3,0,0,0-1.57-.62Zm2.69,24.55a3.22,3.22,0,0,1,0-.33v-11a7.41,7.41,0,0,1,1.86-5.4,5.34,5.34,0,0,1,3.95-1.9c1.19,0,1.39.38,1.48.57a8.38,8.38,0,0,1,.68,3.77v14a3.22,3.22,0,0,1,0,.33,22.68,22.68,0,0,1-2.38.09,2.27,2.27,0,0,0-1.59.65,2.31,2.31,0,0,0-1.6-.65,23,23,0,0,1-2.38-.09Z"/><path class="i" d="M227.74,88.89a13.34,13.34,0,0,1-9.91-4.31A14.64,14.64,0,0,1,213.7,74.1a15.22,15.22,0,0,1,4.05-10.59A13.2,13.2,0,0,1,227.86,59,12.52,12.52,0,0,1,234.78,61,6.47,6.47,0,0,1,238,66.62a3.91,3.91,0,0,1-1.09,2.88,3.67,3.67,0,0,1-2.71,1.08,3.75,3.75,0,0,1-2.8-1.14,3.92,3.92,0,0,1-1-2.77,4.64,4.64,0,0,1,.23-1.42,3.68,3.68,0,0,1,1.15-1.6l.13-.1a8.89,8.89,0,0,0-3.84-.73h-.12a6.19,6.19,0,0,0-4.7,2.48C221.73,67,221,69.92,221,74a17.74,17.74,0,0,0,.78,5.59,7.9,7.9,0,0,0,1.9,3.32,9.34,9.34,0,0,0,2.41,1.69,5.47,5.47,0,0,0,2.2.5c3.33,0,5.52-1.81,6.67-5.52a1.83,1.83,0,0,1,1.81-1.4,1.74,1.74,0,0,1,1.93,1.74,5.28,5.28,0,0,1-.28,1.39,10.44,10.44,0,0,1-1.06,2.22A13.48,13.48,0,0,1,235.43,86,9.83,9.83,0,0,1,232.24,88,11.6,11.6,0,0,1,227.74,88.89Z"/><path class="b" d="M227.86,60.17a11.26,11.26,0,0,1,6.29,1.75,5.34,5.34,0,0,1,2.71,4.7,2.76,2.76,0,0,1-.75,2.06,2.82,2.82,0,0,1-3.86,0,2.81,2.81,0,0,1-.73-2,3.51,3.51,0,0,1,.17-1.06,2.64,2.64,0,0,1,.82-1.09,3,3,0,0,1,1.75-.65q-2.12-2.2-6.22-2.2h-.12a7.34,7.34,0,0,0-5.57,2.88c-1.68,1.91-2.52,5.07-2.52,9.45a18.85,18.85,0,0,0,.84,6,8.93,8.93,0,0,0,2.21,3.8,10.29,10.29,0,0,0,2.72,1.9,6.54,6.54,0,0,0,2.67.6q5.8,0,7.77-6.33a.69.69,0,0,1,.71-.59c.52,0,.78.2.78.59a4.56,4.56,0,0,1-.23,1,9.16,9.16,0,0,1-1,2,12.27,12.27,0,0,1-1.74,2.24,8.68,8.68,0,0,1-2.82,1.8,10.26,10.26,0,0,1-4,.76,12.17,12.17,0,0,1-9.08-4,13.44,13.44,0,0,1-3.81-9.68,14.08,14.08,0,0,1,3.75-9.82,12,12,0,0,1,9.26-4.11m0-2.3a14.32,14.32,0,0,0-11,4.86,16.36,16.36,0,0,0-4.35,11.37A15.73,15.73,0,0,0,217,85.37,14.43,14.43,0,0,0,227.74,90a12.72,12.72,0,0,0,4.94-.94,10.91,10.91,0,0,0,3.57-2.31,14.6,14.6,0,0,0,2.07-2.67,11,11,0,0,0,1.18-2.48,6,6,0,0,0,.33-1.72A2.89,2.89,0,0,0,236.75,77a3,3,0,0,0-2.92,2.23c-1.29,4.15-3.65,4.69-5.56,4.69a4.21,4.21,0,0,1-1.73-.4,7.87,7.87,0,0,1-2.09-1.48,6.83,6.83,0,0,1-1.6-2.85,16.61,16.61,0,0,1-.72-5.22c0-3.74.67-6.48,2-7.94A5.12,5.12,0,0,1,227.92,64H228a10.23,10.23,0,0,1,1.82.15,3.39,3.39,0,0,0-.35.78,5.61,5.61,0,0,0-.29,1.77,5.09,5.09,0,0,0,1.35,3.55,4.82,4.82,0,0,0,3.64,1.51,4.87,4.87,0,0,0,3.53-1.42,5.07,5.07,0,0,0,1.42-3.69A7.65,7.65,0,0,0,235.4,60a13.67,13.67,0,0,0-7.54-2.11Z"/><path class="j" d="M241.13,88.22A1.16,1.16,0,0,1,240,87.07V85.19A1.15,1.15,0,0,1,241.13,84a11.57,11.57,0,0,0,3.37-.25,5,5,0,0,0,.14-1.32V66.35c0-1.49-.28-1.83-.29-1.83a7.75,7.75,0,0,0-3-.3,1.15,1.15,0,0,1-1.15-1.15V61.2a1.16,1.16,0,0,1,1.07-1.15l8.38-.64h.09a1.16,1.16,0,0,1,1.15,1.15v22c0,1,.18,1.31.19,1.32h0A12.69,12.69,0,0,0,254,84a1.16,1.16,0,0,1,1.15,1.15v1.88a1.14,1.14,0,0,1-.35.82,1.17,1.17,0,0,1-.8.33L247.71,88c-.52,0-2.73.06-6.55.18Zm5.68-33.78a4.19,4.19,0,0,1-3.16-1.33,4.25,4.25,0,0,1-1.24-3,4.15,4.15,0,0,1,1.29-3,4.22,4.22,0,0,1,3.11-1.33A4.29,4.29,0,0,1,249.86,47a4.39,4.39,0,0,1,0,6.24A4.28,4.28,0,0,1,246.81,54.44Z"/><path class="b" d="M246.81,46.93a3.17,3.17,0,0,1,2.26.89,3,3,0,0,1,.94,2.29,3,3,0,0,1-.94,2.28,3.14,3.14,0,0,1-2.26.9,3.06,3.06,0,0,1-2.33-1,3.15,3.15,0,0,1-.92-2.23,3.06,3.06,0,0,1,1-2.18,3.1,3.1,0,0,1,2.29-1m2.94,13.62v22c0,1.19.21,1.93.64,2.22s1.62.44,3.58.44v1.88l-6.25-.18q-.81,0-6.59.18V85.19a11.3,11.3,0,0,0,3.93-.39c.48-.27.73-1,.73-2.33V66.35c0-1.48-.25-2.4-.75-2.75s-1.72-.53-3.68-.53V61.2l8.39-.65m-2.94-15.92a5.41,5.41,0,0,0-3.93,1.67,5.35,5.35,0,0,0-1.62,3.79,5.49,5.49,0,0,0,1.55,3.82,5.39,5.39,0,0,0,4,1.68,5.48,5.48,0,0,0,3.85-1.53,5.55,5.55,0,0,0,0-7.9,5.48,5.48,0,0,0-3.85-1.53Zm2.94,13.62h-.18l-8.38.65a2.3,2.3,0,0,0-2.13,2.29v1.87a2.3,2.3,0,0,0,2.3,2.3,13.55,13.55,0,0,1,2.08.12,5.78,5.78,0,0,1,.05.86V82.47c0,.13,0,.24,0,.34-.45,0-1.18.08-2.35.08a2.3,2.3,0,0,0-2.3,2.3v1.88a2.3,2.3,0,0,0,2.3,2.3h.07c4.74-.15,6.16-.18,6.52-.18l6.18.18H254a2.3,2.3,0,0,0,2.3-2.3V85.19a2.3,2.3,0,0,0-2.3-2.3c-.93,0-1.53,0-1.92-.07V60.55a2.32,2.32,0,0,0-2.3-2.3Z"/><path class="k" d="M274.06,88.22a1.16,1.16,0,0,1-1.15-1.15V85.19A1.16,1.16,0,0,1,274.06,84a11.22,11.22,0,0,0,3.4-.26,5.4,5.4,0,0,0,.14-1.31v-14a9.45,9.45,0,0,0-.81-4.31c-.26-.5-.81-1.18-2.5-1.18a6.46,6.46,0,0,0-4.78,2.25,8.5,8.5,0,0,0-2.18,6.2v11a2.66,2.66,0,0,0,.2,1.36h0a15.14,15.14,0,0,0,3.33.21A1.16,1.16,0,0,1,272,85.19v1.88a1.16,1.16,0,0,1-1.15,1.15h0c-4.06-.12-6.31-.18-6.69-.18-.21,0-1.55,0-6.75.18h0a1.14,1.14,0,0,1-.8-.33,1.1,1.1,0,0,1-.35-.82V85.19A1.15,1.15,0,0,1,257.36,84a12.22,12.22,0,0,0,3.4-.25,5.71,5.71,0,0,0,.14-1.32V66.41c0-1.53-.31-1.85-.31-1.85s-.6-.34-3.23-.34a1.14,1.14,0,0,1-1.15-1.15V61.2a1.15,1.15,0,0,1,1.06-1.15l8.44-.64h.09A1.16,1.16,0,0,1,267,60.55v2.29a9.8,9.8,0,0,1,7.75-3.44c3.36,0,5.78.9,7.2,2.66a7.34,7.34,0,0,1,1.84,3.69,43.11,43.11,0,0,1,.29,6.19V83.38c0,.38.13.41.2.43a14,14,0,0,0,3.34.23,1.15,1.15,0,0,1,1.15,1.15v1.88a1.1,1.1,0,0,1-.35.82,1.14,1.14,0,0,1-.8.33h0c-4.05-.12-6.31-.18-6.71-.18-.2,0-1.54,0-6.74.18Z"/><path class="b" d="M274.7,60.55c3,0,5.11.75,6.31,2.23a6.26,6.26,0,0,1,1.59,3.16,42,42,0,0,1,.28,6V83.38a1.45,1.45,0,0,0,1,1.53,15.34,15.34,0,0,0,3.66.28v1.88q-6.12-.18-6.74-.18l-6.77.18V85.19A11.38,11.38,0,0,0,278,84.8c.5-.27.75-1,.75-2.33v-14a10.49,10.49,0,0,0-.94-4.84,3.61,3.61,0,0,0-3.52-1.8,7.63,7.63,0,0,0-5.62,2.61,9.67,9.67,0,0,0-2.49,7v11c0,1.29.25,2.06.75,2.33a11.42,11.42,0,0,0,3.94.39v1.88c-4.09-.12-6.34-.18-6.73-.18l-6.78.18V85.19a11.41,11.41,0,0,0,3.95-.39c.49-.27.74-1,.74-2.33V66.41c0-1.48-.26-2.41-.79-2.78s-1.82-.56-3.9-.56V61.2l8.44-.65v6.3q2.82-6.3,8.9-6.3m-8.9-2.3h-.18l-8.44.65a2.29,2.29,0,0,0-2.12,2.29v1.87a2.3,2.3,0,0,0,2.3,2.3,15.2,15.2,0,0,1,2.33.14,5.79,5.79,0,0,1,.06.9V82.47c0,.13,0,.24,0,.33a23,23,0,0,1-2.38.09,2.3,2.3,0,0,0-2.3,2.3v1.88a2.29,2.29,0,0,0,2.3,2.3h.06c5.47-.16,6.56-.18,6.72-.18s1.61,0,6.66.18h.07a2.26,2.26,0,0,0,1.59-.65,2.3,2.3,0,0,0,1.6.65h.07c5.45-.16,6.54-.18,6.7-.18s1.64,0,6.68.18h.06a2.3,2.3,0,0,0,2.3-2.3V85.19a2.3,2.3,0,0,0-2.3-2.3,23.36,23.36,0,0,1-2.39-.09V71.94a43.91,43.91,0,0,0-.31-6.38,8.52,8.52,0,0,0-2.11-4.27c-1.65-2-4.36-3-8.06-3a11.29,11.29,0,0,0-6.62,2,2.32,2.32,0,0,0-2.28-2Zm2.69,24.55a3.22,3.22,0,0,1,0-.33v-11a7.41,7.41,0,0,1,1.86-5.4,5.34,5.34,0,0,1,4-1.9c1.19,0,1.39.38,1.48.57a8.38,8.38,0,0,1,.68,3.77v14a3.22,3.22,0,0,1,0,.33,22.83,22.83,0,0,1-2.38.09,2.31,2.31,0,0,0-1.6.65,2.27,2.27,0,0,0-1.59-.65,22.68,22.68,0,0,1-2.38-.09Z"/><path class="l" d="M303.33,88.89a13.79,13.79,0,0,1-10.06-4.34A14.61,14.61,0,0,1,289,73.86a15.06,15.06,0,0,1,3.93-10.44,12.62,12.62,0,0,1,9.7-4.4c3.87,0,6.86,1.3,8.91,3.84a14,14,0,0,1,3,9,2.5,2.5,0,0,1-.68,2,3.08,3.08,0,0,1-2,.43h-15.6c.11,3.27.65,5.7,1.63,7.25a6.53,6.53,0,0,0,5.79,3.49,8,8,0,0,0,1.12-.1,14.67,14.67,0,0,0,1.95-.58A5.91,5.91,0,0,0,309,82.83a8.8,8.8,0,0,0,1.74-3.09,1.85,1.85,0,0,1,1.81-1.66,1.79,1.79,0,0,1,1.95,1.85,5.46,5.46,0,0,1-.69,2.21,16,16,0,0,1-1.78,2.8,10.3,10.3,0,0,1-3.58,2.78A11.31,11.31,0,0,1,303.33,88.89Zm4.87-18.15c0-.43-.09-.87-.16-1.33a21.56,21.56,0,0,0-.8-3.17,5.65,5.65,0,0,0-1.74-2.64A4.53,4.53,0,0,0,301,63a8.51,8.51,0,0,0-2,1.24A6.47,6.47,0,0,0,297.22,67a14.33,14.33,0,0,0-.84,3.78Z"/><path class="b" d="M302.6,60.17q5.28,0,8,3.41a12.85,12.85,0,0,1,2.74,8.31c0,.64-.07,1-.23,1.14a2.61,2.61,0,0,1-1.26.18H295.1c0,4.09.6,7.1,1.81,9a7.67,7.67,0,0,0,6.77,4,7.76,7.76,0,0,0,1.3-.12,14.9,14.9,0,0,0,2.16-.63,6.8,6.8,0,0,0,2.71-1.9,9.74,9.74,0,0,0,2-3.55c.11-.55.34-.82.7-.82h0c.51,0,.76.24.76.7a4.58,4.58,0,0,1-.57,1.71,14.82,14.82,0,0,1-1.65,2.59A9.14,9.14,0,0,1,308,86.69a10.18,10.18,0,0,1-4.62,1,12.61,12.61,0,0,1-9.24-4,13.45,13.45,0,0,1-4-9.88,13.9,13.9,0,0,1,3.63-9.67,11.48,11.48,0,0,1,8.85-4m-7.44,11.72H309.4a16.82,16.82,0,0,0-.22-2.66,22.75,22.75,0,0,0-.85-3.34,6.72,6.72,0,0,0-2.1-3.17,5.43,5.43,0,0,0-3.63-1.23,5.59,5.59,0,0,0-2,.41,9.44,9.44,0,0,0-2.3,1.4,7.63,7.63,0,0,0-2.14,3.25,16.34,16.34,0,0,0-1,5.34m7.44-14A13.79,13.79,0,0,0,292,62.64a16.24,16.24,0,0,0-4.22,11.22,15.78,15.78,0,0,0,4.63,11.5A14.92,14.92,0,0,0,303.33,90a12.38,12.38,0,0,0,5.65-1.3,11.36,11.36,0,0,0,4-3.1,17,17,0,0,0,1.91-3,6.37,6.37,0,0,0,.79-2.71,2.93,2.93,0,0,0-3-3h-.07a3,3,0,0,0-2.92,2.49,7.58,7.58,0,0,1-1.48,2.63,4.58,4.58,0,0,1-1.79,1.28,11.71,11.71,0,0,1-1.76.53,5.58,5.58,0,0,1-.93.09,5.42,5.42,0,0,1-4.82-3,12,12,0,0,1-1.39-5.49h14.39a4.24,4.24,0,0,0,2.68-.67,3.6,3.6,0,0,0,1.11-3,15.16,15.16,0,0,0-3.24-9.75c-2.28-2.83-5.58-4.27-9.81-4.27Zm-4.9,11.72a12,12,0,0,1,.59-2.21,5.17,5.17,0,0,1,1.43-2.27A7,7,0,0,1,301.43,64a3.38,3.38,0,0,1,1.17-.25,3.2,3.2,0,0,1,2.16.69,4.49,4.49,0,0,1,1.38,2.12,20.68,20.68,0,0,1,.77,3H297.7Z"/><path class="m" d="M326.74,88.89a10.41,10.41,0,0,1-6.51-2.13l-.17.21a1.75,1.75,0,0,1-.31.42c-1.18,1.15-1.72,1.5-2.31,1.5a1.63,1.63,0,0,1-1.68-1.13,5.8,5.8,0,0,1-.13-1.48V78.37a8.08,8.08,0,0,1,0-1.06,1.82,1.82,0,0,1,.55-1.09,1.87,1.87,0,0,1,1.35-.5,1.9,1.9,0,0,1,1.42.53,2.73,2.73,0,0,1,.59,1.45,12.48,12.48,0,0,0,2.54,5.77,5.81,5.81,0,0,0,4.62,1.8,6.39,6.39,0,0,0,4.31-1.21A3.87,3.87,0,0,0,332.36,81c0-1.48-.55-3.54-5.29-4.38-2.5-.51-4.21-.92-5.26-1.26a9.73,9.73,0,0,1-3.19-1.78,7.51,7.51,0,0,1-3-6,8.1,8.1,0,0,1,2.62-6C320,59.87,322.71,59,326.36,59a10.76,10.76,0,0,1,5.56,1.41l.22-.24.15-.16a3.29,3.29,0,0,1,2-1,1.63,1.63,0,0,1,1.72,1.12,5,5,0,0,1,.15,1.5v6q0,.78,0,1a1.79,1.79,0,0,1-.64,1.15,2.1,2.1,0,0,1-1.36.42,1.74,1.74,0,0,1-1.93-1.64c-.28-4.22-2.15-6.18-5.89-6.18-2.07,0-3.54.36-4.38,1.08a3,3,0,0,0-1.18,2.34,2.21,2.21,0,0,0,.31,1.2,3,3,0,0,0,.81.9,6.5,6.5,0,0,0,1.52.74,12,12,0,0,0,1.73.52l2.1.44c3.44.65,5.87,1.69,7.39,3.18a9,9,0,0,1,2.87,6.54,9.18,9.18,0,0,1-2.74,6.75C333,88,330.26,88.89,326.74,88.89Z"/><path class="b" d="M334.34,60.17c.35,0,.56.11.63.31a4.9,4.9,0,0,1,.09,1.16v6a8.83,8.83,0,0,1,0,.91.6.6,0,0,1-.22.4,1,1,0,0,1-.63.16c-.5,0-.76-.19-.79-.56q-.47-7.26-7-7.26-3.54,0-5.13,1.36a4.14,4.14,0,0,0-1.58,3.21,3.37,3.37,0,0,0,.48,1.81,4.46,4.46,0,0,0,1.12,1.23,7.93,7.93,0,0,0,1.8.88,14.92,14.92,0,0,0,1.89.57l2.09.44c3.21.6,5.48,1.56,6.83,2.87a7.91,7.91,0,0,1,2.52,5.72,8,8,0,0,1-2.4,5.93c-1.6,1.6-4,2.4-7.24,2.4a9.26,9.26,0,0,1-6.62-2.58l-.61.66-.35.43a.71.71,0,0,0-.13.19.35.35,0,0,1-.08.13c-.81.78-1.31,1.17-1.51,1.17s-.51-.1-.57-.31a4.8,4.8,0,0,1-.09-1.15V78.37a8.69,8.69,0,0,1,0-.91.68.68,0,0,1,.21-.41.74.74,0,0,1,.55-.18.79.79,0,0,1,.59.18,1.89,1.89,0,0,1,.29.85,13.49,13.49,0,0,0,2.81,6.33,6.93,6.93,0,0,0,5.48,2.19,7.5,7.5,0,0,0,5.07-1.49,5,5,0,0,0,1.7-4c0-2.94-2.08-4.77-6.24-5.52-2.41-.49-4.1-.89-5.1-1.21a8.62,8.62,0,0,1-2.81-1.57,6.4,6.4,0,0,1-2.58-5.11,7,7,0,0,1,2.27-5.19c1.51-1.46,3.95-2.2,7.31-2.2a9.25,9.25,0,0,1,5.66,1.7,6.06,6.06,0,0,0,1-1,2.5,2.5,0,0,1,1.3-.74m0-2.3A4.29,4.29,0,0,0,331.72,59a12.33,12.33,0,0,0-5.36-1.14c-4,0-7,1-8.91,2.85a9.24,9.24,0,0,0-3,6.84,8.74,8.74,0,0,0,3.42,6.89l.2.16a4.39,4.39,0,0,0-.53,0,3,3,0,0,0-2.15.83,2.94,2.94,0,0,0-.9,1.77,11.24,11.24,0,0,0,0,1.2v7.91a6.44,6.44,0,0,0,.18,1.81,2.79,2.79,0,0,0,2.78,2c1,0,1.79-.56,3-1.73A11.66,11.66,0,0,0,326.74,90c3.84,0,6.82-1,8.86-3.07a10.26,10.26,0,0,0,3.08-7.56,10.13,10.13,0,0,0-3.19-7.34,10,10,0,0,0-.77-.67,2.94,2.94,0,0,0,2.6-2.53,11.49,11.49,0,0,0,0-1.2v-6a6.61,6.61,0,0,0-.19-1.84,2.81,2.81,0,0,0-2.83-1.93Zm-6.85,10.69-2.09-.43a13.78,13.78,0,0,1-1.57-.48,5.34,5.34,0,0,1-1.24-.59,2.15,2.15,0,0,1-.51-.58,1.14,1.14,0,0,1-.13-.59,1.82,1.82,0,0,1,.78-1.47c.35-.3,1.29-.8,3.63-.8s4.45.62,4.74,5.11a2.59,2.59,0,0,0,.18.85,23.78,23.78,0,0,0-3.79-1Zm-6.79,8.9a4.34,4.34,0,0,0-.54-1.56,9.52,9.52,0,0,0,1.3.52,50.68,50.68,0,0,0,5.35,1.29h.05c4.35.77,4.35,2.51,4.35,3.25a2.72,2.72,0,0,1-.92,2.23,5.48,5.48,0,0,1-3.55.92A4.72,4.72,0,0,1,323,82.71a11.51,11.51,0,0,1-2.28-5.25Z"/><path class="n" d="M350.06,88.89a10.41,10.41,0,0,1-6.51-2.13l-.17.21a1.75,1.75,0,0,1-.31.42c-1.18,1.15-1.72,1.5-2.3,1.5a1.61,1.61,0,0,1-1.68-1.13,5.28,5.28,0,0,1-.14-1.48V78.37a8.08,8.08,0,0,1,0-1.06,1.82,1.82,0,0,1,.55-1.09,1.87,1.87,0,0,1,1.35-.5,1.9,1.9,0,0,1,1.42.53,2.73,2.73,0,0,1,.59,1.45,12.48,12.48,0,0,0,2.54,5.77,5.82,5.82,0,0,0,4.62,1.8,6.39,6.39,0,0,0,4.31-1.21A3.87,3.87,0,0,0,355.68,81c0-1.48-.55-3.54-5.29-4.38-2.5-.51-4.21-.92-5.26-1.26A9.68,9.68,0,0,1,342,73.55a7.49,7.49,0,0,1-3-6,8.1,8.1,0,0,1,2.62-6C343.3,59.87,346,59,349.68,59a10.73,10.73,0,0,1,5.56,1.41l.22-.24.16-.16a3.25,3.25,0,0,1,2-1,1.66,1.66,0,0,1,1.73,1.12,5.36,5.36,0,0,1,.15,1.5v6c0,.52,0,.87,0,1a1.79,1.79,0,0,1-.64,1.15,2.1,2.1,0,0,1-1.36.42,1.74,1.74,0,0,1-1.93-1.64c-.28-4.22-2.15-6.18-5.89-6.18-2.07,0-3.54.36-4.38,1.08a3,3,0,0,0-1.18,2.34,2.21,2.21,0,0,0,.31,1.2,3,3,0,0,0,.81.9,6.5,6.5,0,0,0,1.52.74,12.41,12.41,0,0,0,1.73.52l2.1.44c3.44.65,5.87,1.69,7.39,3.18a9,9,0,0,1,2.87,6.54,9.18,9.18,0,0,1-2.74,6.75C356.3,88,353.59,88.89,350.06,88.89Z"/><path class="b" d="M357.66,60.17c.36,0,.56.11.63.31a4.9,4.9,0,0,1,.09,1.16v6c0,.45,0,.75,0,.91a.61.61,0,0,1-.23.4,1,1,0,0,1-.63.16c-.5,0-.76-.19-.79-.56q-.46-7.26-7-7.26-3.54,0-5.13,1.36A4.14,4.14,0,0,0,343,65.89a3.37,3.37,0,0,0,.48,1.81,4.62,4.62,0,0,0,1.12,1.23,7.93,7.93,0,0,0,1.8.88,14.92,14.92,0,0,0,1.89.57l2.09.44q4.81.9,6.83,2.87a7.91,7.91,0,0,1,2.52,5.72,8,8,0,0,1-2.4,5.93q-2.4,2.4-7.24,2.4a9.28,9.28,0,0,1-6.62-2.58q-.35.36-.6.66l-.36.43a1.08,1.08,0,0,0-.13.19.26.26,0,0,1-.08.13q-1.22,1.17-1.5,1.17c-.33,0-.52-.1-.58-.31a4.8,4.8,0,0,1-.09-1.15V78.37a8.69,8.69,0,0,1,0-.91.68.68,0,0,1,.21-.41.74.74,0,0,1,.55-.18.79.79,0,0,1,.59.18,1.89,1.89,0,0,1,.29.85,13.59,13.59,0,0,0,2.81,6.33,7,7,0,0,0,5.48,2.19,7.5,7.5,0,0,0,5.07-1.49,5,5,0,0,0,1.7-4c0-2.94-2.08-4.77-6.24-5.52q-3.6-.74-5.1-1.21a8.73,8.73,0,0,1-2.81-1.57,6.4,6.4,0,0,1-2.58-5.11,7,7,0,0,1,2.27-5.19c1.51-1.46,3.95-2.2,7.31-2.2a9.25,9.25,0,0,1,5.66,1.7,6.06,6.06,0,0,0,1-1,2.5,2.5,0,0,1,1.3-.74m0-2.3A4.29,4.29,0,0,0,355,59a12.33,12.33,0,0,0-5.36-1.14c-4,0-7,1-8.91,2.85a9.24,9.24,0,0,0-3,6.84,8.74,8.74,0,0,0,3.42,6.89l.2.16a4.39,4.39,0,0,0-.53,0,3,3,0,0,0-2.15.83,2.87,2.87,0,0,0-.89,1.77,8.59,8.59,0,0,0-.05,1.2v7.91a6.44,6.44,0,0,0,.18,1.81,2.8,2.8,0,0,0,2.79,2c1,0,1.79-.56,3-1.73A11.66,11.66,0,0,0,350.06,90c3.84,0,6.82-1,8.86-3.07A10.26,10.26,0,0,0,362,79.41a10.13,10.13,0,0,0-3.19-7.34,8.41,8.41,0,0,0-.77-.67,3,3,0,0,0,1.54-.64,2.93,2.93,0,0,0,1.06-1.89,11.49,11.49,0,0,0,0-1.2v-6a6.25,6.25,0,0,0-.19-1.84,2.81,2.81,0,0,0-2.83-1.93Zm-6.85,10.69-2.09-.43a13.87,13.87,0,0,1-1.56-.48,5.53,5.53,0,0,1-1.25-.59,2,2,0,0,1-.5-.58,1,1,0,0,1-.14-.59,1.82,1.82,0,0,1,.78-1.47c.35-.3,1.29-.8,3.63-.8s4.45.62,4.74,5.11a3.23,3.23,0,0,0,.18.85,23.78,23.78,0,0,0-3.79-1ZM344,77.46a4.76,4.76,0,0,0-.54-1.56,8.92,8.92,0,0,0,1.29.52,52,52,0,0,0,5.35,1.29h.05c4.35.77,4.35,2.51,4.35,3.25a2.72,2.72,0,0,1-.92,2.23,5.48,5.48,0,0,1-3.55.92,4.73,4.73,0,0,1-3.76-1.41A11.41,11.41,0,0,1,344,77.46Z"/></svg>