<svg xmlns="http://www.w3.org/2000/svg" viewBox="0 0 477.34 450.28"><path d="M72.45,317.13c-32.36-33-14.54-98,45.75-106.62-1.92-3.46-3.91-6.6-5.5-9.93-9.06-19.07-6.5-37.42,4.73-54.53,11.54-17.59,25.78-32.4,46.54-39.27,3.08-1,6.17-2,9.54-3.11-11.53-15.2-7.08-30.39.27-45.31A96.19,96.19,0,0,1,183.94,42.5a20.29,20.29,0,0,0,4.57-13.68c-.18-4.31,0-8.82-1.26-12.84s-4.12-7.43-7-12.28c2-.84,5-2.93,8.18-3.35,9.28-1.24,18.27.92,26.43,5.12,28.34,14.6,54.51,32.28,75.74,56.41,10.6,12.05,19.19,25.43,22.12,41.53,1.91,10.44,1.8,21-2.19,31.25,22.35-2,37.41,9.09,50.46,25.3,14.25,17.7,10.29,36.43,5.28,54.7,8,2,16.4,3.08,23.9,6.3,15.39,6.6,23.92,19.67,28.11,35.28a110.07,110.07,0,0,1,3.94,27.32c.07,8.74-2.22,17.49-3.6,27.14,4.69,2.67,10.75,6,16.65,9.52,13.22,8,24.91,17.72,33.1,31,13,21.1,10.68,42.22.14,63.65-9.61,19.54-26.17,27.83-46.41,31.35-26.36,4.59-52.94,4.18-79.52,4-20.47-.16-40.95-.33-61.4-1.14-22.71-.9-45.39-2.7-68.1-3.77-14.45-.68-29,.15-43.36-1.32-18-1.85-35.24,2.12-52.75,4.21-23.89,2.85-47.6,3-70.8-4.11C26.58,438,10.75,427.11,3,407c-3.75-9.72-3.71-19.53-1.45-29.6,4.89-21.85,14.76-40.23,35-51.64C47.45,319.6,59.28,317.06,72.45,317.13Z"/></svg>