<svg xmlns="http://www.w3.org/2000/svg" viewBox="0 0 1024 1024"><defs><style>.a{fill:#a58dc1;}.b{fill:#c23278;}.c{fill:#6c71c4;}.d{fill:#2aa198;}</style></defs><rect class="a" x="59.65" y="263.81" width="903.98" height="496.48" transform="translate(122.99 -98.62) rotate(12.5)"/><path class="b" d="M228,303.14c110.78,0,137.46,80.36,123.62,158.89-12.89,73.1-64.79,158.9-181.47,158.9H83l56-317.79ZM302.59,462c10.08-57.2-6.62-114.4-71.54-114.4H178.39L138.05,576.44h47.67C258.35,576.44,293.14,515.6,302.59,462Z"/><path class="c" d="M441.14,303.14H568.71c78.08,0,96.14,49.48,87.74,97.15-7.85,44.49-46.64,97.16-122,97.16H454.09L432.32,620.93H385.11Zm166.28,97.15c3.92-22.24-2.23-51.75-44-51.75H480.35L462.1,452.05h83.08C584.67,452.05,603.09,424.81,607.42,400.29Z"/><path class="d" d="M857.76,620.93,758.23,405.29a189.64,189.64,0,0,1-8.55-23.61c-.83,7.26-1.36,15.43-2.8,23.61l-38,215.64H661.64l56-317.79h47.67l96.54,212a256.48,256.48,0,0,1,8.84,24.51,236.49,236.49,0,0,1,2.88-24.06l37.46-212.46h47.22l-56,317.79Z"/><rect class="b" x="84" y="644.02" width="652.02" height="32" rx="16"/><rect class="c" x="84" y="676.02" width="732" height="32" rx="16"/><rect class="d" x="84" y="708.02" width="815.74" height="32" rx="16"/></svg>